<svg xmlns="http://www.w3.org/2000/svg" xmlns:xlink="http://www.w3.org/1999/xlink" width="160" zoomAndPan="magnify" viewBox="0 0 120 74.999997" height="100" preserveAspectRatio="xMidYMid meet" version="1.0"><defs><g/><clipPath id="5ed3e75d8f"><path d="M 99.4375 15.285156 L 109.4375 15.285156 L 109.4375 28.617188 L 99.4375 28.617188 Z M 99.4375 15.285156 " clip-rule="nonzero"/></clipPath></defs><rect x="-12" width="144" fill="#ffffff" y="-7.5" height="89.999996" fill-opacity="1"/><rect x="-12" width="144" fill="#ffffff" y="-7.5" height="89.999996" fill-opacity="1"/><g clip-path="url(#5ed3e75d8f)"><path fill="#7ed957" d="M 104.363281 15.265625 C 104.042969 15.265625 103.726562 15.296875 103.414062 15.359375 C 103.097656 15.421875 102.792969 15.511719 102.5 15.636719 C 102.203125 15.757812 101.921875 15.910156 101.65625 16.085938 C 101.390625 16.265625 101.144531 16.464844 100.917969 16.691406 C 100.691406 16.917969 100.492188 17.164062 100.3125 17.429688 C 100.136719 17.695312 99.984375 17.976562 99.863281 18.273438 C 99.738281 18.566406 99.648438 18.871094 99.585938 19.1875 C 99.523438 19.5 99.492188 19.816406 99.488281 20.136719 C 99.488281 23.859375 103.933594 28.347656 104.121094 28.535156 L 104.363281 28.777344 L 104.601562 28.535156 C 104.792969 28.347656 109.234375 23.859375 109.234375 20.136719 C 109.234375 19.816406 109.203125 19.5 109.140625 19.1875 C 109.078125 18.871094 108.984375 18.566406 108.863281 18.273438 C 108.742188 17.976562 108.589844 17.695312 108.414062 17.429688 C 108.234375 17.164062 108.03125 16.917969 107.808594 16.691406 C 107.582031 16.464844 107.335938 16.265625 107.070312 16.085938 C 106.804688 15.910156 106.523438 15.757812 106.226562 15.636719 C 105.929688 15.511719 105.625 15.421875 105.3125 15.359375 C 105 15.296875 104.683594 15.265625 104.363281 15.265625 Z M 104.363281 22.742188 C 104.015625 22.742188 103.683594 22.675781 103.367188 22.542969 C 103.046875 22.414062 102.765625 22.222656 102.519531 21.980469 C 102.277344 21.734375 102.085938 21.453125 101.953125 21.132812 C 101.824219 20.816406 101.757812 20.480469 101.757812 20.136719 C 101.757812 19.789062 101.824219 19.457031 101.953125 19.140625 C 102.085938 18.820312 102.277344 18.539062 102.519531 18.292969 C 102.765625 18.050781 103.046875 17.859375 103.367188 17.730469 C 103.683594 17.597656 104.015625 17.53125 104.363281 17.53125 C 104.707031 17.53125 105.039062 17.597656 105.359375 17.730469 C 105.679688 17.859375 105.960938 18.050781 106.207031 18.292969 C 106.449219 18.539062 106.636719 18.820312 106.769531 19.140625 C 106.902344 19.457031 106.96875 19.789062 106.96875 20.136719 C 106.96875 20.480469 106.902344 20.8125 106.769531 21.132812 C 106.636719 21.453125 106.449219 21.734375 106.203125 21.980469 C 105.960938 22.222656 105.679688 22.410156 105.359375 22.542969 C 105.039062 22.675781 104.707031 22.742188 104.363281 22.742188 Z M 104.363281 22.742188 " fill-opacity="1" fill-rule="nonzero"/></g><g fill="#000000" fill-opacity="1"><g transform="translate(-1.411558, 47.785831)"><g><path d="M 2.203125 0 L 2.203125 -31.59375 L 8.703125 -31.59375 L 8.703125 -16.859375 L 8.78125 -16.859375 C 10.46875 -18.546875 12.265625 -19.390625 14.171875 -19.390625 C 15.109375 -19.390625 16.035156 -19.265625 16.953125 -19.015625 C 17.867188 -18.773438 18.75 -18.398438 19.59375 -17.890625 C 20.4375 -17.378906 21.117188 -16.648438 21.640625 -15.703125 C 22.171875 -14.765625 22.4375 -13.671875 22.4375 -12.421875 L 22.4375 0 L 15.9375 0 L 15.9375 -10.65625 C 15.9375 -11.632812 15.625 -12.488281 15 -13.21875 C 14.375 -13.957031 13.5625 -14.328125 12.5625 -14.328125 C 11.582031 -14.328125 10.691406 -13.945312 9.890625 -13.1875 C 9.097656 -12.425781 8.703125 -11.582031 8.703125 -10.65625 L 8.703125 0 Z M 2.203125 0 "/></g></g></g><g fill="#000000" fill-opacity="1"><g transform="translate(19.41069, 47.785831)"><g><path d="M 3.484375 -2.328125 C 1.722656 -4.253906 0.84375 -6.613281 0.84375 -9.40625 C 0.84375 -12.195312 1.722656 -14.554688 3.484375 -16.484375 C 5.253906 -18.421875 7.5 -19.390625 10.21875 -19.390625 C 12.707031 -19.390625 14.765625 -18.609375 16.390625 -17.046875 L 16.390625 -18.84375 L 22.890625 -18.84375 L 22.890625 0 L 16.453125 0 L 16.453125 -2.125 L 16.390625 -2.125 C 14.765625 -0.34375 12.707031 0.546875 10.21875 0.546875 C 7.5 0.546875 5.253906 -0.410156 3.484375 -2.328125 Z M 9.015625 -12.59375 C 8.171875 -11.757812 7.75 -10.691406 7.75 -9.390625 C 7.75 -8.097656 8.148438 -7.039062 8.953125 -6.21875 C 9.765625 -5.40625 10.832031 -5 12.15625 -5 C 13.425781 -5 14.472656 -5.414062 15.296875 -6.25 C 16.117188 -7.082031 16.53125 -8.132812 16.53125 -9.40625 C 16.53125 -10.695312 16.109375 -11.757812 15.265625 -12.59375 C 14.421875 -13.425781 13.382812 -13.84375 12.15625 -13.84375 C 10.90625 -13.84375 9.859375 -13.425781 9.015625 -12.59375 Z M 9.015625 -12.59375 "/></g></g></g><g fill="#000000" fill-opacity="1"><g transform="translate(41.040896, 47.785831)"><g><path d="M 13.78125 0 L 9.375 0 L -0.734375 -18.84375 L 6.765625 -18.84375 L 11.34375 -8.671875 L 15.875 -18.84375 L 20.34375 -18.84375 L 24.875 -8.671875 L 29.46875 -18.84375 L 36.953125 -18.84375 L 26.859375 0 L 22.4375 0 L 18.109375 -9.734375 Z M 13.78125 0 "/></g></g></g><g fill="#000000" fill-opacity="1"><g transform="translate(73.798875, 47.785831)"><g><path d="M 3.484375 -2.328125 C 1.722656 -4.253906 0.84375 -6.613281 0.84375 -9.40625 C 0.84375 -12.195312 1.722656 -14.554688 3.484375 -16.484375 C 5.253906 -18.421875 7.5 -19.390625 10.21875 -19.390625 C 12.707031 -19.390625 14.765625 -18.609375 16.390625 -17.046875 L 16.390625 -18.84375 L 22.890625 -18.84375 L 22.890625 0 L 16.453125 0 L 16.453125 -2.125 L 16.390625 -2.125 C 14.765625 -0.34375 12.707031 0.546875 10.21875 0.546875 C 7.5 0.546875 5.253906 -0.410156 3.484375 -2.328125 Z M 9.015625 -12.59375 C 8.171875 -11.757812 7.75 -10.691406 7.75 -9.390625 C 7.75 -8.097656 8.148438 -7.039062 8.953125 -6.21875 C 9.765625 -5.40625 10.832031 -5 12.15625 -5 C 13.425781 -5 14.472656 -5.414062 15.296875 -6.25 C 16.117188 -7.082031 16.53125 -8.132812 16.53125 -9.40625 C 16.53125 -10.695312 16.109375 -11.757812 15.265625 -12.59375 C 14.421875 -13.425781 13.382812 -13.84375 12.15625 -13.84375 C 10.90625 -13.84375 9.859375 -13.425781 9.015625 -12.59375 Z M 9.015625 -12.59375 "/></g></g></g><g fill="#000000" fill-opacity="1"><g transform="translate(95.432593, 47.785831)"><g/></g></g><g fill="#000000" fill-opacity="1"><g transform="translate(102.005421, 47.785831)"><g/></g></g><g fill="#000000" fill-opacity="1"><g transform="translate(108.57939, 47.785831)"><g><path d="M 6.390625 -7.859375 C 7.566406 -7.859375 8.5625 -7.445312 9.375 -6.625 C 10.195312 -5.8125 10.609375 -4.816406 10.609375 -3.640625 C 10.609375 -2.484375 10.195312 -1.492188 9.375 -0.671875 C 8.5625 0.140625 7.566406 0.546875 6.390625 0.546875 C 5.242188 0.546875 4.257812 0.140625 3.4375 -0.671875 C 2.613281 -1.492188 2.203125 -2.484375 2.203125 -3.640625 C 2.203125 -4.816406 2.613281 -5.8125 3.4375 -6.625 C 4.257812 -7.445312 5.242188 -7.859375 6.390625 -7.859375 Z M 6.390625 -7.859375 "/></g></g></g><g fill="#000000" fill-opacity="1"><g transform="translate(98.534195, 47.883519)"><g><path d="M 1.328125 0 L 1.328125 -18.953125 L 5.21875 -18.953125 L 5.21875 0 Z M 1.328125 0 "/></g></g></g><g fill="#000000" fill-opacity="1"><g transform="translate(95.60141, 47.883519)"><g><path d="M 1.328125 0 L 1.328125 -18.953125 L 5.21875 -18.953125 L 5.21875 0 Z M 1.328125 0 "/></g></g></g><g fill="#000000" fill-opacity="1"><g transform="translate(105.965713, 47.883519)"><g><path d="M 1.328125 0 L 1.328125 -18.953125 L 5.21875 -18.953125 L 5.21875 0 Z M 1.328125 0 "/></g></g></g><g fill="#000000" fill-opacity="1"><g transform="translate(103.069124, 47.883519)"><g><path d="M 1.328125 0 L 1.328125 -18.953125 L 5.21875 -18.953125 L 5.21875 0 Z M 1.328125 0 "/></g></g></g></svg>