<?xml version="1.0" encoding="utf-8"?>
<!-- Generator: Adobe Illustrator 22.1.0, SVG Export Plug-In . SVG Version: 6.00 Build 0)  -->
<svg version="1.1" id="Layer_1" xmlns="http://www.w3.org/2000/svg" xmlns:xlink="http://www.w3.org/1999/xlink" x="0px" y="0px"
	 viewBox="0 0 673.2 183.4" style="enable-background:new 0 0 673.2 183.4;" xml:space="preserve">
<style type="text/css">
	.st0{fill:#E74352;}
	.st1{fill:#B43241;}
	.st2{fill:#707070;}
	.st3{fill:#2EA0DE;}
	.st4{fill:#080808;}
</style>
<g>
	<path class="st0" d="M20.1,103.6C9,103.6,0,112.6,0,123.7c0,16.3,20.1,37,20.1,37s20.1-20.7,20.1-37
		C40.2,112.6,31.2,103.6,20.1,103.6z M20.1,132.9c-5.1,0-9.2-4.1-9.2-9.2c0-5.1,4.1-9.2,9.2-9.2c5.1,0,9.2,4.1,9.2,9.2
		C29.3,128.8,25.2,132.9,20.1,132.9z"/>
	<path class="st0" d="M653.1,103.6c-11.1,0-20.1,9-20.1,20.1c0,16.3,20.1,37,20.1,37s20.1-20.7,20.1-37
		C673.2,112.6,664.2,103.6,653.1,103.6z M653.1,132.9c-5.1,0-9.2-4.1-9.2-9.2c0-5.1,4.1-9.2,9.2-9.2c5.1,0,9.2,4.1,9.2,9.2
		C662.3,128.8,658.2,132.9,653.1,132.9z"/>
	<path class="st1" d="M32.5,177.2c0,3.4-5.5,6.2-12.4,6.2c-6.8,0-12.4-2.8-12.4-6.2s5.5-6.2,12.4-6.2
		C26.9,171,32.5,173.8,32.5,177.2z"/>
	<path class="st1" d="M665.5,177.2c0,3.4-5.5,6.2-12.4,6.2c-6.8,0-12.4-2.8-12.4-6.2s5.5-6.2,12.4-6.2
		C659.9,171,665.5,173.8,665.5,177.2z"/>
	<g>
		<g>
			<path class="st2" d="M31.8,166.4c-0.4,0-0.9-0.2-1.2-0.5c-0.7-0.7-0.7-1.8,0-2.5c2.4-2.4,5-5,7.9-7.6c0.7-0.7,1.9-0.6,2.5,0.1
				c0.7,0.7,0.6,1.9-0.1,2.5c-2.8,2.6-5.4,5.1-7.7,7.5C32.8,166.2,32.3,166.4,31.8,166.4z M47.8,151.7c-0.5,0-1-0.2-1.4-0.6
				c-0.6-0.8-0.5-1.9,0.2-2.5c2.7-2.3,5.6-4.6,8.5-6.8c0.8-0.6,1.9-0.5,2.5,0.3c0.6,0.8,0.5,1.9-0.3,2.5c-2.9,2.2-5.7,4.5-8.4,6.7
				C48.6,151.6,48.2,151.7,47.8,151.7z M65,138.5c-0.6,0-1.1-0.3-1.5-0.7c-0.6-0.8-0.4-1.9,0.4-2.5c2.9-2.1,5.9-4.1,9-6.2
				c0.8-0.5,1.9-0.3,2.5,0.5c0.5,0.8,0.3,1.9-0.5,2.5c-3,2-6,4.1-8.9,6.1C65.7,138.4,65.4,138.5,65,138.5z M83.1,126.5
				c-0.6,0-1.2-0.3-1.5-0.8c-0.5-0.8-0.3-1.9,0.6-2.5c3-1.9,6.2-3.8,9.3-5.6c0.9-0.5,1.9-0.2,2.4,0.6c0.5,0.9,0.2,1.9-0.6,2.4
				c-3.1,1.8-6.2,3.7-9.3,5.5C83.7,126.4,83.4,126.5,83.1,126.5z M101.8,115.6c-0.6,0-1.2-0.3-1.6-0.9c-0.5-0.9-0.1-1.9,0.7-2.4
				c3.2-1.7,6.4-3.4,9.6-5.1c0.9-0.4,2-0.1,2.4,0.8c0.4,0.9,0.1,2-0.8,2.4c-3.2,1.6-6.4,3.3-9.6,5
				C102.4,115.6,102.1,115.6,101.8,115.6z M121.2,105.8c-0.7,0-1.3-0.4-1.6-1c-0.4-0.9,0-2,0.8-2.4c3.3-1.5,6.6-3.1,9.9-4.5
				c0.9-0.4,2,0,2.4,0.9c0.4,0.9,0,2-0.9,2.4c-3.3,1.4-6.6,3-9.8,4.5C121.7,105.8,121.4,105.8,121.2,105.8z M141,97.1
				c-0.7,0-1.4-0.4-1.6-1.1c-0.4-0.9,0.1-2,1-2.3c3.3-1.4,6.7-2.7,10.1-4c0.9-0.3,2,0.1,2.3,1c0.4,0.9-0.1,2-1,2.3
				c-3.4,1.3-6.7,2.6-10,4C141.4,97.1,141.2,97.1,141,97.1z M161.2,89.4c-0.7,0-1.4-0.5-1.7-1.2c-0.3-0.9,0.2-1.9,1.1-2.3
				c3.4-1.2,6.9-2.4,10.3-3.5c0.9-0.3,1.9,0.2,2.2,1.1c0.3,0.9-0.2,1.9-1.1,2.2c-3.4,1.1-6.8,2.3-10.2,3.5
				C161.6,89.3,161.4,89.4,161.2,89.4z M181.8,82.6c-0.8,0-1.5-0.5-1.7-1.3c-0.3-0.9,0.2-1.9,1.2-2.2c3.5-1,7-2.1,10.5-3
				c0.9-0.3,1.9,0.3,2.2,1.2c0.3,0.9-0.3,1.9-1.2,2.2c-3.5,1-6.9,2-10.4,3C182.2,82.6,182,82.6,181.8,82.6z M202.7,76.9
				c-0.8,0-1.5-0.5-1.7-1.3c-0.2-1,0.3-1.9,1.3-2.2c3.5-0.9,7-1.7,10.6-2.5c1-0.2,1.9,0.4,2.1,1.3c0.2,1-0.4,1.9-1.3,2.1
				c-3.6,0.8-7,1.7-10.5,2.5C203,76.8,202.8,76.9,202.7,76.9z M223.8,72c-0.8,0-1.6-0.6-1.7-1.4c-0.2-1,0.4-1.9,1.4-2.1
				c3.5-0.7,7.1-1.4,10.7-2.1c1-0.2,1.9,0.5,2.1,1.4c0.2,1-0.5,1.9-1.4,2.1c-3.6,0.7-7.1,1.3-10.6,2.1C224.1,72,223.9,72,223.8,72z
				 M245.1,68.1c-0.9,0-1.6-0.6-1.8-1.5c-0.2-1,0.5-1.9,1.5-2c3.5-0.6,7.1-1.1,10.7-1.6c1-0.1,1.9,0.5,2,1.5c0.1,1-0.5,1.9-1.5,2
				c-3.6,0.5-7.2,1.1-10.7,1.6C245.3,68.1,245.2,68.1,245.1,68.1z M266.6,65.1c-0.9,0-1.7-0.7-1.8-1.6c-0.1-1,0.6-1.9,1.6-2
				c3.6-0.4,7.2-0.8,10.8-1.2c1-0.1,1.9,0.6,2,1.6c0.1,1-0.6,1.9-1.6,2c-3.6,0.4-7.2,0.8-10.7,1.2C266.7,65.1,266.7,65.1,266.6,65.1
				z M288.1,62.9c-0.9,0-1.7-0.7-1.8-1.6c-0.1-1,0.6-1.8,1.6-1.9c3.6-0.3,7.2-0.6,10.8-0.8c1-0.1,1.8,0.7,1.9,1.7
				c0.1,1-0.7,1.8-1.7,1.9c-3.6,0.2-7.2,0.5-10.8,0.8C288.2,62.9,288.2,62.9,288.1,62.9z M309.8,61.5c-0.9,0-1.7-0.7-1.8-1.7
				c0-1,0.7-1.8,1.7-1.9c3.6-0.2,7.2-0.3,10.9-0.4c1,0,1.8,0.7,1.8,1.7c0,1-0.7,1.8-1.7,1.8C317,61.2,313.4,61.3,309.8,61.5
				C309.8,61.5,309.8,61.5,309.8,61.5z M331.4,60.9c-1,0-1.8-0.8-1.8-1.8c0-1,0.8-1.8,1.8-1.8c3.6,0,7.3,0,10.9,0
				c1,0,1.8,0.8,1.8,1.8c0,1-0.8,1.8-1.8,1.8c0,0,0,0,0,0C338.7,60.9,335,60.9,331.4,60.9C331.4,60.9,331.4,60.9,331.4,60.9z"/>
		</g>
		<g>
			<path class="st1" d="M653.1,179c-0.5,0-1-0.2-1.4-0.6c0,0-1.2-1.4-3.5-3.9c-0.7-0.7-0.6-1.8,0.1-2.5c0.7-0.7,1.8-0.6,2.5,0.1
				c2.4,2.5,3.6,4,3.7,4c0.6,0.8,0.5,1.9-0.2,2.5C653.9,178.9,653.5,179,653.1,179z"/>
		</g>
	</g>
	<path class="st3" d="M368.6,54h-15.8c-0.4,0-0.8-0.2-1-0.5l-7.1-11.5c2.5,0,4.8-0.3,5.9-0.8v-8.2c-2-0.9-8.3-1.1-11.8-0.4L318.8,0
		h-5.7l11.3,42.4c0.4,1.6,0.6,3.3,0.6,4.9v5.8c0,0.4-0.3,0.8-0.8,0.8h-12.4c-5.3,0-10.2,0.5-14.4,1.2L282.8,41h-4.7l6.7,17.5
		c-2.2,0.9-3.4,1.8-3.4,2.3c0,0.5,1.2,1.4,3.4,2.3l-6.7,17.5h4.7l14.7-14.1c4.3,0.7,9.2,1.2,14.4,1.2h12.4c0.4,0,0.8,0.3,0.8,0.8
		v5.8c0,1.7-0.2,3.3-0.6,4.9l-11.3,42.4h5.7l20-32.4c3.4,0.6,9.8,0.5,11.8-0.4v-8.2c-1.1-0.5-3.4-0.8-5.9-0.8l7.1-11.5
		c0.2-0.3,0.6-0.5,1-0.5h15.8c11.5,0,20.9-4.4,20.9-6.9C389.5,58.4,380.1,54,368.6,54z"/>
</g>
<path class="st4" d="M641.8,167.3c-0.4,0-0.9-0.2-1.2-0.5c-2.5-2.4-5.2-4.8-8-7.2c-0.7-0.6-0.8-1.8-0.2-2.5c0.6-0.7,1.8-0.8,2.5-0.2
	c2.8,2.5,5.5,4.9,8.1,7.3c0.7,0.7,0.7,1.8,0.1,2.5C642.7,167.2,642.3,167.3,641.8,167.3z"/>
<path class="st4" d="M625.5,153.1c-0.4,0-0.8-0.1-1.1-0.4c-2.7-2.2-5.6-4.5-8.5-6.7c-0.8-0.6-0.9-1.7-0.3-2.5
	c0.6-0.8,1.7-0.9,2.5-0.3c2.9,2.2,5.8,4.5,8.6,6.7c0.8,0.6,0.9,1.7,0.3,2.5C626.5,152.8,626,153.1,625.5,153.1z"/>
<path class="st4" d="M608.2,140c-0.4,0-0.7-0.1-1-0.3c-2.9-2.1-5.9-4.1-8.9-6.1c-0.8-0.5-1-1.7-0.5-2.5c0.5-0.8,1.7-1,2.5-0.5
	c3,2,6.1,4.1,9,6.2c0.8,0.6,1,1.7,0.4,2.5C609.3,139.7,608.8,140,608.2,140z"/>
<path class="st4" d="M590.2,127.9c-0.3,0-0.6-0.1-0.9-0.3c-3-1.9-6.1-3.8-9.2-5.6c-0.8-0.5-1.1-1.6-0.6-2.4c0.5-0.8,1.6-1.1,2.4-0.6
	c3.1,1.8,6.3,3.7,9.3,5.6c0.8,0.5,1.1,1.6,0.6,2.5C591.3,127.6,590.8,127.9,590.2,127.9z"/>
<path class="st4" d="M571.5,117c-0.3,0-0.6-0.1-0.9-0.2c-3.1-1.7-6.3-3.4-9.5-5.1c-0.9-0.5-1.2-1.5-0.8-2.4c0.5-0.9,1.5-1.2,2.4-0.8
	c3.2,1.7,6.5,3.4,9.6,5.1c0.9,0.5,1.2,1.6,0.7,2.4C572.7,116.6,572.1,117,571.5,117z"/>
<path class="st4" d="M552.2,107c-0.3,0-0.5-0.1-0.8-0.2c-3.2-1.6-6.5-3.1-9.8-4.6c-0.9-0.4-1.3-1.5-0.9-2.4c0.4-0.9,1.5-1.3,2.4-0.9
	c3.3,1.5,6.6,3,9.9,4.6c0.9,0.4,1.3,1.5,0.8,2.4C553.5,106.6,552.9,107,552.2,107z"/>
<path class="st4" d="M532.5,98.1c-0.2,0-0.5,0-0.7-0.1c-3.3-1.4-6.7-2.8-10-4.1c-0.9-0.4-1.4-1.4-1-2.3c0.4-0.9,1.4-1.4,2.3-1
	c3.4,1.3,6.7,2.7,10.1,4.1c0.9,0.4,1.3,1.4,1,2.3C533.8,97.7,533.2,98.1,532.5,98.1z"/>
<path class="st4" d="M512.3,90.2c-0.2,0-0.4,0-0.6-0.1c-3.3-1.2-6.8-2.4-10.2-3.6c-0.9-0.3-1.4-1.3-1.1-2.3c0.3-0.9,1.3-1.4,2.3-1.1
	c3.4,1.2,6.9,2.4,10.3,3.6c0.9,0.3,1.4,1.4,1.1,2.3C513.7,89.7,513,90.2,512.3,90.2z"/>
<path class="st4" d="M491.8,83.2c-0.2,0-0.4,0-0.5-0.1c-3.4-1.1-6.9-2.1-10.3-3.1c-0.9-0.3-1.5-1.3-1.2-2.2c0.3-0.9,1.3-1.5,2.2-1.2
	c3.5,1,7,2,10.4,3.1c0.9,0.3,1.5,1.3,1.2,2.2C493.2,82.8,492.5,83.2,491.8,83.2z"/>
<path class="st4" d="M470.9,77.3c-0.1,0-0.3,0-0.5-0.1c-3.4-0.9-7-1.8-10.5-2.6c-1-0.2-1.6-1.2-1.3-2.1c0.2-1,1.2-1.6,2.1-1.3
	c3.5,0.8,7.1,1.7,10.6,2.6c1,0.2,1.5,1.2,1.3,2.2C472.4,76.8,471.7,77.3,470.9,77.3z"/>
<path class="st4" d="M449.8,72.3c-0.1,0-0.2,0-0.4,0c-3.5-0.7-7-1.5-10.6-2.1c-1-0.2-1.6-1.1-1.4-2.1c0.2-1,1.1-1.6,2.1-1.4
	c3.5,0.7,7.1,1.4,10.7,2.1c1,0.2,1.6,1.2,1.4,2.1C451.4,71.7,450.7,72.3,449.8,72.3z"/>
<path class="st4" d="M428.5,68.3c-0.1,0-0.2,0-0.3,0c-3.5-0.6-7.1-1.2-10.7-1.7c-1-0.1-1.6-1-1.5-2c0.1-1,1-1.7,2-1.5
	c3.6,0.5,7.2,1.1,10.7,1.7c1,0.2,1.6,1.1,1.5,2.1C430.2,67.6,429.4,68.3,428.5,68.3z"/>
<path class="st4" d="M407.1,65.1c-0.1,0-0.1,0-0.2,0c-3.5-0.4-7.1-0.9-10.7-1.2c-1-0.1-1.7-1-1.6-2c0.1-1,1-1.7,2-1.6
	c3.6,0.4,7.2,0.8,10.8,1.2c1,0.1,1.7,1,1.5,2C408.8,64.5,408,65.1,407.1,65.1z"/>
</svg>
