<svg xmlns="http://www.w3.org/2000/svg" xmlns:xlink="http://www.w3.org/1999/xlink" width="500" zoomAndPan="magnify" viewBox="0 0 375 374.999991" height="500" preserveAspectRatio="xMidYMid meet" version="1.0"><defs><clipPath id="631835d9d9"><path d="M 83.46875 83.46875 L 291.21875 83.46875 L 291.21875 291.21875 L 83.46875 291.21875 Z M 83.46875 83.46875 " clip-rule="nonzero"/></clipPath></defs><g clip-path="url(#631835d9d9)"><path fill="#000000" d="M 187.34375 83.46875 C 185.644531 83.46875 183.945312 83.511719 182.246094 83.59375 C 180.546875 83.675781 178.855469 83.800781 177.164062 83.96875 C 175.46875 84.136719 173.785156 84.34375 172.101562 84.59375 C 170.421875 84.84375 168.746094 85.132812 167.078125 85.464844 C 165.410156 85.796875 163.753906 86.167969 162.105469 86.582031 C 160.453125 86.996094 158.816406 87.449219 157.191406 87.941406 C 155.5625 88.433594 153.949219 88.96875 152.347656 89.539062 C 150.75 90.113281 149.164062 90.726562 147.59375 91.375 C 146.023438 92.027344 144.46875 92.714844 142.929688 93.441406 C 141.394531 94.167969 139.875 94.933594 138.378906 95.734375 C 136.878906 96.535156 135.398438 97.375 133.941406 98.246094 C 132.484375 99.121094 131.046875 100.03125 129.632812 100.976562 C 128.21875 101.917969 126.832031 102.898438 125.464844 103.910156 C 124.101562 104.921875 122.761719 105.96875 121.445312 107.046875 C 120.132812 108.125 118.84375 109.234375 117.585938 110.378906 C 116.324219 111.519531 115.09375 112.691406 113.894531 113.894531 C 112.691406 115.09375 111.519531 116.324219 110.378906 117.585938 C 109.234375 118.84375 108.125 120.132812 107.046875 121.445312 C 105.96875 122.761719 104.921875 124.101562 103.910156 125.464844 C 102.898438 126.832031 101.917969 128.21875 100.976562 129.632812 C 100.03125 131.046875 99.121094 132.484375 98.246094 133.941406 C 97.375 135.398438 96.535156 136.878906 95.734375 138.378906 C 94.933594 139.875 94.167969 141.394531 93.441406 142.929688 C 92.714844 144.46875 92.027344 146.023438 91.375 147.59375 C 90.726562 149.164062 90.113281 150.75 89.539062 152.347656 C 88.96875 153.949219 88.433594 155.5625 87.941406 157.191406 C 87.449219 158.816406 86.996094 160.453125 86.582031 162.105469 C 86.167969 163.753906 85.796875 165.410156 85.464844 167.078125 C 85.132812 168.746094 84.84375 170.421875 84.59375 172.101562 C 84.34375 173.785156 84.136719 175.46875 83.96875 177.164062 C 83.800781 178.855469 83.675781 180.546875 83.59375 182.246094 C 83.511719 183.945312 83.46875 185.644531 83.46875 187.34375 C 83.46875 189.042969 83.511719 190.742188 83.59375 192.441406 C 83.675781 194.136719 83.800781 195.832031 83.96875 197.523438 C 84.136719 199.21875 84.34375 200.902344 84.59375 202.585938 C 84.84375 204.265625 85.132812 205.941406 85.464844 207.609375 C 85.796875 209.277344 86.167969 210.933594 86.582031 212.582031 C 86.996094 214.230469 87.449219 215.871094 87.941406 217.496094 C 88.433594 219.125 88.96875 220.738281 89.539062 222.339844 C 90.113281 223.9375 90.726562 225.523438 91.375 227.09375 C 92.027344 228.664062 92.714844 230.21875 93.441406 231.757812 C 94.167969 233.292969 94.933594 234.8125 95.734375 236.308594 C 96.535156 237.808594 97.375 239.289062 98.246094 240.746094 C 99.121094 242.203125 100.03125 243.640625 100.976562 245.054688 C 101.917969 246.46875 102.898438 247.855469 103.910156 249.222656 C 104.921875 250.585938 105.96875 251.925781 107.046875 253.242188 C 108.125 254.554688 109.234375 255.84375 110.378906 257.101562 C 111.519531 258.363281 112.691406 259.59375 113.894531 260.792969 C 115.09375 261.996094 116.324219 263.167969 117.585938 264.308594 C 118.84375 265.453125 120.132812 266.5625 121.445312 267.640625 C 122.761719 268.71875 124.101562 269.765625 125.464844 270.777344 C 126.832031 271.789062 128.21875 272.769531 129.632812 273.710938 C 131.046875 274.65625 132.484375 275.566406 133.941406 276.441406 C 135.398438 277.3125 136.878906 278.152344 138.378906 278.953125 C 139.875 279.753906 141.394531 280.519531 142.929688 281.246094 C 144.46875 281.972656 146.023438 282.660156 147.59375 283.3125 C 149.164062 283.960938 150.75 284.574219 152.347656 285.148438 C 153.949219 285.71875 155.5625 286.253906 157.191406 286.746094 C 158.816406 287.238281 160.453125 287.691406 162.105469 288.105469 C 163.753906 288.519531 165.410156 288.890625 167.078125 289.222656 C 168.746094 289.554688 170.421875 289.84375 172.101562 290.09375 C 173.785156 290.34375 175.46875 290.550781 177.164062 290.71875 C 178.855469 290.886719 180.546875 291.011719 182.246094 291.09375 C 183.945312 291.175781 185.644531 291.21875 187.34375 291.21875 C 189.042969 291.21875 190.742188 291.175781 192.441406 291.09375 C 194.136719 291.011719 195.832031 290.886719 197.523438 290.71875 C 199.21875 290.550781 200.902344 290.34375 202.585938 290.09375 C 204.265625 289.84375 205.941406 289.554688 207.609375 289.222656 C 209.277344 288.890625 210.933594 288.519531 212.582031 288.105469 C 214.230469 287.691406 215.871094 287.238281 217.496094 286.746094 C 219.125 286.253906 220.738281 285.71875 222.339844 285.148438 C 223.9375 284.574219 225.523438 283.960938 227.09375 283.3125 C 228.664062 282.660156 230.21875 281.972656 231.757812 281.246094 C 233.292969 280.519531 234.8125 279.753906 236.308594 278.953125 C 237.808594 278.152344 239.289062 277.3125 240.746094 276.441406 C 242.203125 275.566406 243.640625 274.65625 245.054688 273.710938 C 246.46875 272.769531 247.855469 271.789062 249.222656 270.777344 C 250.585938 269.765625 251.925781 268.71875 253.242188 267.640625 C 254.554688 266.5625 255.84375 265.453125 257.101562 264.308594 C 258.363281 263.167969 259.59375 261.996094 260.792969 260.792969 C 261.996094 259.59375 263.167969 258.363281 264.308594 257.101562 C 265.453125 255.84375 266.5625 254.554688 267.640625 253.242188 C 268.71875 251.925781 269.765625 250.585938 270.777344 249.222656 C 271.789062 247.855469 272.769531 246.46875 273.710938 245.054688 C 274.65625 243.640625 275.566406 242.203125 276.441406 240.746094 C 277.3125 239.289062 278.152344 237.808594 278.953125 236.308594 C 279.753906 234.8125 280.519531 233.292969 281.246094 231.757812 C 281.972656 230.21875 282.660156 228.664062 283.3125 227.09375 C 283.960938 225.523438 284.574219 223.9375 285.148438 222.339844 C 285.71875 220.738281 286.253906 219.125 286.746094 217.496094 C 287.238281 215.871094 287.691406 214.230469 288.105469 212.582031 C 288.519531 210.933594 288.890625 209.277344 289.222656 207.609375 C 289.554688 205.941406 289.84375 204.265625 290.09375 202.585938 C 290.34375 200.902344 290.550781 199.21875 290.71875 197.523438 C 290.886719 195.832031 291.011719 194.136719 291.09375 192.441406 C 291.175781 190.742188 291.21875 189.042969 291.21875 187.34375 C 291.21875 185.644531 291.175781 183.945312 291.09375 182.246094 C 291.007812 180.550781 290.882812 178.855469 290.71875 177.164062 C 290.550781 175.472656 290.34375 173.785156 290.09375 172.101562 C 289.84375 170.421875 289.550781 168.746094 289.21875 167.078125 C 288.890625 165.414062 288.515625 163.753906 288.101562 162.105469 C 287.691406 160.457031 287.238281 158.820312 286.742188 157.191406 C 286.25 155.566406 285.714844 153.953125 285.144531 152.351562 C 284.570312 150.75 283.957031 149.164062 283.308594 147.59375 C 282.65625 146.023438 281.96875 144.46875 281.242188 142.933594 C 280.515625 141.398438 279.75 139.878906 278.949219 138.378906 C 278.148438 136.878906 277.308594 135.402344 276.4375 133.945312 C 275.5625 132.484375 274.652344 131.050781 273.707031 129.636719 C 272.765625 128.222656 271.785156 126.835938 270.773438 125.46875 C 269.761719 124.101562 268.714844 122.761719 267.636719 121.449219 C 266.558594 120.136719 265.449219 118.847656 264.304688 117.589844 C 263.164062 116.328125 261.992188 115.097656 260.789062 113.898438 C 259.589844 112.695312 258.359375 111.523438 257.097656 110.382812 C 255.839844 109.238281 254.550781 108.128906 253.238281 107.050781 C 251.921875 105.972656 250.582031 104.925781 249.21875 103.914062 C 247.851562 102.902344 246.464844 101.921875 245.050781 100.980469 C 243.636719 100.035156 242.203125 99.125 240.742188 98.25 C 239.285156 97.378906 237.804688 96.539062 236.308594 95.738281 C 234.808594 94.9375 233.289062 94.171875 231.753906 93.445312 C 230.21875 92.71875 228.664062 92.03125 227.09375 91.378906 C 225.523438 90.726562 223.9375 90.117188 222.335938 89.542969 C 220.734375 88.972656 219.121094 88.4375 217.496094 87.945312 C 215.867188 87.449219 214.230469 86.996094 212.582031 86.585938 C 210.933594 86.171875 209.273438 85.796875 207.609375 85.464844 C 205.941406 85.136719 204.265625 84.84375 202.585938 84.59375 C 200.902344 84.34375 199.214844 84.136719 197.523438 83.96875 C 195.832031 83.804688 194.136719 83.679688 192.441406 83.59375 C 190.742188 83.511719 189.042969 83.46875 187.34375 83.46875 Z M 187.34375 122.421875 C 187.957031 122.421875 188.570312 122.4375 189.1875 122.472656 C 189.800781 122.507812 190.410156 122.5625 191.023438 122.632812 C 191.632812 122.703125 192.238281 122.792969 192.84375 122.898438 C 193.449219 123.003906 194.050781 123.125 194.652344 123.265625 C 195.25 123.40625 195.84375 123.566406 196.429688 123.742188 C 197.019531 123.914062 197.605469 124.109375 198.183594 124.316406 C 198.761719 124.523438 199.332031 124.75 199.898438 124.992188 C 200.460938 125.234375 201.019531 125.492188 201.570312 125.765625 C 202.117188 126.039062 202.660156 126.328125 203.195312 126.636719 C 203.726562 126.941406 204.25 127.261719 204.765625 127.597656 C 205.28125 127.933594 205.785156 128.28125 206.28125 128.648438 C 206.773438 129.011719 207.257812 129.390625 207.730469 129.785156 C 208.203125 130.175781 208.664062 130.582031 209.113281 131.003906 C 209.5625 131.421875 209.996094 131.855469 210.421875 132.300781 C 210.847656 132.746094 211.257812 133.203125 211.652344 133.671875 C 212.050781 134.136719 212.433594 134.617188 212.804688 135.109375 C 213.175781 135.601562 213.53125 136.101562 213.871094 136.613281 C 214.210938 137.125 214.539062 137.644531 214.847656 138.175781 C 215.160156 138.703125 215.453125 139.242188 215.734375 139.789062 C 216.011719 140.339844 216.277344 140.894531 216.523438 141.457031 C 216.769531 142.019531 217.003906 142.585938 217.214844 143.164062 C 217.429688 143.738281 217.628906 144.320312 217.808594 144.90625 C 217.992188 145.496094 218.152344 146.085938 218.300781 146.683594 C 218.445312 147.28125 218.578125 147.882812 218.6875 148.484375 C 218.800781 149.089844 218.894531 149.695312 218.972656 150.308594 C 219.046875 150.917969 219.105469 151.527344 219.148438 152.140625 C 219.1875 152.753906 219.210938 153.367188 219.21875 153.980469 C 219.222656 154.597656 219.210938 155.210938 219.183594 155.824219 C 219.152344 156.4375 219.105469 157.050781 219.039062 157.664062 C 218.976562 158.273438 218.890625 158.882812 218.792969 159.488281 C 218.691406 160.09375 218.574219 160.695312 218.4375 161.296875 C 218.304688 161.894531 218.148438 162.492188 217.980469 163.082031 C 217.8125 163.671875 217.625 164.257812 217.421875 164.835938 C 217.21875 165.417969 216.996094 165.992188 216.761719 166.558594 C 216.523438 167.125 216.269531 167.683594 216 168.238281 C 215.730469 168.789062 215.445312 169.332031 215.148438 169.871094 C 214.847656 170.40625 214.53125 170.933594 214.199219 171.449219 C 213.867188 171.96875 213.523438 172.476562 213.160156 172.972656 C 212.800781 173.46875 212.425781 173.957031 212.039062 174.433594 C 211.648438 174.910156 211.246094 175.375 210.832031 175.828125 C 210.414062 176.277344 209.988281 176.71875 209.546875 177.148438 C 209.105469 177.574219 208.652344 177.992188 208.1875 178.390625 C 207.722656 178.792969 207.246094 179.183594 206.757812 179.554688 C 206.269531 179.929688 205.773438 180.289062 205.265625 180.636719 C 204.757812 180.980469 204.238281 181.3125 203.710938 181.625 C 203.183594 181.941406 202.648438 182.242188 202.101562 182.527344 C 201.558594 182.808594 201.003906 183.078125 200.445312 183.332031 C 199.886719 183.582031 199.316406 183.820312 198.746094 184.039062 C 198.171875 184.257812 197.589844 184.460938 197.003906 184.648438 C 196.417969 184.832031 195.828125 185.003906 195.234375 185.15625 C 194.636719 185.304688 194.039062 185.441406 193.433594 185.558594 C 192.832031 185.675781 192.226562 185.773438 191.617188 185.855469 C 191.007812 185.9375 190.398438 186.003906 189.785156 186.050781 C 189.171875 186.097656 188.558594 186.125 187.941406 186.136719 C 187.328125 186.148438 186.714844 186.140625 186.101562 186.117188 C 185.488281 186.09375 184.875 186.050781 184.261719 185.992188 C 183.652344 185.933594 183.042969 185.855469 182.433594 185.757812 C 181.828125 185.664062 181.222656 185.550781 180.621094 185.421875 C 180.023438 185.292969 179.425781 185.144531 178.832031 184.980469 C 178.242188 184.816406 177.652344 184.632812 177.074219 184.4375 C 176.492188 184.238281 175.914062 184.023438 175.347656 183.792969 C 174.777344 183.558594 174.214844 183.3125 173.660156 183.046875 C 173.105469 182.78125 172.558594 182.503906 172.019531 182.207031 C 171.480469 181.910156 170.953125 181.601562 170.429688 181.273438 C 143.683594 164.328125 155.273438 122.746094 187.34375 122.421875 Z M 224.707031 252.265625 L 149.980469 252.265625 C 149.210938 252.265625 148.441406 252.226562 147.671875 252.148438 C 146.90625 252.070312 146.144531 251.957031 145.390625 251.804688 C 144.632812 251.652344 143.886719 251.464844 143.148438 251.242188 C 142.410156 251.015625 141.6875 250.753906 140.972656 250.460938 C 140.261719 250.164062 139.566406 249.832031 138.886719 249.46875 C 138.207031 249.105469 137.546875 248.707031 136.90625 248.277344 C 136.265625 247.851562 135.648438 247.390625 135.050781 246.902344 C 134.457031 246.410156 133.886719 245.894531 133.339844 245.347656 C 132.796875 244.800781 132.28125 244.230469 131.792969 243.636719 C 131.300781 243.039062 130.84375 242.421875 130.414062 241.777344 C 129.988281 241.136719 129.589844 240.476562 129.226562 239.796875 C 128.863281 239.117188 128.535156 238.421875 128.242188 237.707031 C 127.945312 236.996094 127.6875 236.269531 127.460938 235.53125 C 127.238281 234.792969 127.050781 234.046875 126.902344 233.292969 C 126.75 232.535156 126.636719 231.773438 126.5625 231.007812 C 126.484375 230.238281 126.449219 229.46875 126.445312 228.699219 C 126.445312 208.734375 141.152344 191.5 162.25 183.742188 C 163.121094 184.476562 164.019531 185.171875 164.949219 185.824219 C 165.878906 186.480469 166.832031 187.09375 167.816406 187.667969 C 168.800781 188.238281 169.804688 188.765625 170.835938 189.25 C 171.867188 189.734375 172.914062 190.167969 173.984375 190.5625 C 175.050781 190.953125 176.132812 191.296875 177.230469 191.59375 C 178.328125 191.886719 179.4375 192.136719 180.558594 192.332031 C 181.679688 192.53125 182.804688 192.683594 183.9375 192.78125 C 185.070312 192.882812 186.207031 192.929688 187.34375 192.929688 C 188.480469 192.929688 189.617188 192.882812 190.75 192.78125 C 191.882812 192.683594 193.007812 192.53125 194.128906 192.332031 C 195.25 192.136719 196.359375 191.886719 197.457031 191.59375 C 198.554688 191.296875 199.636719 190.953125 200.703125 190.5625 C 201.773438 190.167969 202.820312 189.734375 203.851562 189.25 C 204.878906 188.765625 205.886719 188.238281 206.871094 187.667969 C 207.855469 187.09375 208.808594 186.480469 209.738281 185.824219 C 210.667969 185.171875 211.566406 184.476562 212.4375 183.742188 C 233.535156 191.5 248.242188 208.734375 248.242188 228.699219 C 248.238281 229.46875 248.203125 230.238281 248.125 231.007812 C 248.050781 231.773438 247.9375 232.535156 247.785156 233.292969 C 247.636719 234.046875 247.449219 234.792969 247.222656 235.53125 C 247 236.269531 246.742188 236.996094 246.445312 237.707031 C 246.152344 238.421875 245.820312 239.117188 245.457031 239.796875 C 245.09375 240.476562 244.699219 241.136719 244.273438 241.777344 C 243.84375 242.421875 243.386719 243.039062 242.894531 243.636719 C 242.40625 244.230469 241.890625 244.800781 241.347656 245.347656 C 240.800781 245.894531 240.230469 246.410156 239.636719 246.902344 C 239.039062 247.390625 238.421875 247.851562 237.78125 248.277344 C 237.140625 248.707031 236.480469 249.105469 235.800781 249.46875 C 235.121094 249.832031 234.425781 250.164062 233.710938 250.460938 C 233 250.753906 232.277344 251.015625 231.539062 251.242188 C 230.800781 251.464844 230.054688 251.652344 229.296875 251.804688 C 228.542969 251.957031 227.78125 252.070312 227.011719 252.148438 C 226.246094 252.226562 225.476562 252.265625 224.707031 252.265625 Z M 224.707031 252.265625 " fill-opacity="1" fill-rule="nonzero"/></g></svg>